PathFileType	4	(X/Y/Z)	C:/Users/opensim2020/Desktop/walking_exp_matlab/subject01_walking06_straight_03.trc																																																																																																																															
DataRate	CameraRate	NumFrames	NumMarkers	Units	OrigDataRate	OrigDataStartFrame	OrigNumFrames																																																																																																																											
100	100	6	43	mm	100	2233	206																																																																																																																											
Frame#	Time	LFHD			RFHD			LBHD			RBHD			C7			T10			CLAV			STRN			RBAK			LSHO			LUPA			LELB			LFRM			LWRA			LWRB			LFIN			RSHO			RUPA			RELB			RFRM			RWRA			RWRB			RFIN			LASI			RASI			LPSI			RPSI			LTHI			LKNE			LTIB			LANK			LHEE			LTOE			RTHI			RKNE			RTIB			RANK			RHEE			RTOE			*39			*40			*41			*42		
		X1	Y1	Z1	X2	Y2	Z2	X3	Y3	Z3	X4	Y4	Z4	X5	Y5	Z5	X6	Y6	Z6	X7	Y7	Z7	X8	Y8	Z8	X9	Y9	Z9	X10	Y10	Z10	X11	Y11	Z11	X12	Y12	Z12	X13	Y13	Z13	X14	Y14	Z14	X15	Y15	Z15	X16	Y16	Z16	X17	Y17	Z17	X18	Y18	Z18	X19	Y19	Z19	X20	Y20	Z20	X21	Y21	Z21	X22	Y22	Z22	X23	Y23	Z23	X24	Y24	Z24	X25	Y25	Z25	X26	Y26	Z26	X27	Y27	Z27	X28	Y28	Z28	X29	Y29	Z29	X30	Y30	Z30	X31	Y31	Z31	X32	Y32	Z32	X33	Y33	Z33	X34	Y34	Z34	X35	Y35	Z35	X36	Y36	Z36	X37	Y37	Z37	X38	Y38	Z38	X39	Y39	Z39	X40	Y40	Z40	X41	Y41	Z41	X42	Y42	Z42	X43	Y43	Z43
																																																																																																																																		
129	1.28	167.37218	1654.46167	1397.77136	206.13658	1659.69177	1505.26587	53.02608	1617.16467	1433.11182	90.93843	1622.00195	1547.28198	11.79108	1422.79541	1468.28162	-28.68425	1129.47412	1469.44226	153.16296	1349.71558	1458.84766	192.72981	1195.67896	1454.56311	-43.52411	1228.9707	1546.44946	85.86771	1381.90601	1301.17004	23.8284	1202.26318	1220.5	-18.36045	1060.74426	1225.50305	-15.85495	947.14758	1202.20129	14.06428	810.02283	1229.91479	-33.58331	827.06714	1196.08496	-20.51698	741.13824	1197.44031	98.23067	1378.69775	1613.26526	74.2163	1180.16272	1723.67676	102.19987	1055.85632	1735.7843	186.98759	964.52972	1757.08813	309.52646	903.86139	1718.31726	280.4548	885.97815	1766.00952	351.69177	842.29071	1756.10962	148.03067	922.9884	1366.17041	135.86455	921.05646	1584.56519	-40.46598	934.86023	1404.4071	-48.9273	943.83368	1548.0144	185.74419	604.76831	1294.51477	214.96924	476.26276	1317.2915	230.67583	292.69669	1304.77393	297.35181	78.69698	1351.82495	268.04565	35.86321	1407.64807	445.00824	88.12607	1343.44214	16.37316	598.7959	1626.77673	-10.85766	440.28757	1598.96069	-109.69541	292.85663	1595.17212	-188.66658	100.94856	1540.75	-243.84163	78.88634	1489.12305	-60.68708	33.16014	1534.44495	191.84299	1694.50708	1485.95068	1973.28931	1023.23529	-3101.83325	2012.55127	1021.97491	-3140.78052	NaN	NaN	NaN
130	1.29	176.92941	1653.80969	1395.42737	215.64748	1659.07251	1502.89709	62.5237	1616.51672	1430.7489	100.42159	1621.31519	1544.87622	21.46177	1422.08557	1465.95215	-18.2594	1128.53381	1467.79529	163.03505	1349.11011	1456.80481	203.05956	1195.151	1453.02124	-33.55063	1228.06653	1544.2489	95.79544	1380.76709	1298.94946	34.14647	1200.86438	1218.82056	-7.91765	1059.24487	1224.0918	-5.16036	945.6319	1201.14136	25.19912	808.75208	1229.25745	-22.54079	825.42999	1195.34204	-9.18144	739.58032	1196.94067	107.58038	1378.37634	1611.14124	82.64577	1179.84692	1721.49622	110.61993	1055.64587	1734.04712	194.86192	963.92877	1755.68677	317.14444	902.47534	1717.45325	287.62585	884.51624	1764.74805	358.6875	840.38538	1755.26599	159.2742	922.40857	1365.43945	146.40883	920.34515	1583.86548	-29.48537	934.06689	1402.9425	-38.33051	943.12134	1546.30603	199.18787	604.97473	1295.47168	227.22037	476.17334	1318.12952	240.31778	291.52411	1305.03076	302.93964	76.26451	1352.44958	272.65747	34.49144	1408.02161	450.90555	84.31222	1345.17883	25.79906	598.61377	1626.67126	-2.20279	439.82996	1599.16614	-103.86213	294.17218	1595.66846	-186.67067	103.74449	1541.7262	-242.74945	83.11882	1489.94812	-60.43634	33.10504	1534.55884	201.49216	1693.97473	1483.69299	1973.14722	1023.32483	-3101.89063	2012.46606	1021.87445	-3140.66357	NaN	NaN	NaN
131	1.3	186.52756	1653.21338	1392.97437	225.1089	1658.49255	1500.42944	72.08354	1615.76672	1428.18787	109.92307	1620.61499	1542.34644	31.18886	1421.18018	1463.43396	-7.52063	1127.46777	1466.10754	172.99641	1348.54041	1454.68201	213.37381	1194.6333	1451.2843	-23.55129	1227.1908	1542.01758	105.83074	1379.67212	1296.5968	44.5528	1199.43506	1217.01648	2.67233	1057.71082	1222.48547	5.96207	944.09302	1199.95447	36.83514	807.50525	1228.47266	-10.99359	823.76483	1194.60376	2.86322	738.09778	1196.35168	117.03254	1378.09534	1608.86023	91.02141	1179.5824	1719.20532	118.8033	1055.44458	1732.20496	202.28012	963.10345	1754.21497	324.41434	900.82404	1716.53174	294.47623	882.98883	1763.57983	365.17725	838.19171	1754.45557	170.65585	921.89868	1364.61536	157.04924	919.68433	1583.02515	-18.23305	933.26428	1401.48682	-27.57967	942.43335	1544.75391	212.75887	605.11902	1296.65637	239.68832	476.0657	1319.19739	249.19748	290.11099	1305.53784	307.31976	74.18071	1353.3053	274.95065	33.76834	1408.4425	455.03088	79.23621	1346.93542	35.72683	598.00177	1626.09729	6.94971	439.10956	1599.35205	-97.67705	295.40125	1596.11963	-184.48953	106.75747	1542.69983	-241.00807	87.70453	1491.23608	-60.24174	32.98976	1534.60571	210.9072	1693.36963	1481.23633	1973.09033	1023.35419	-3101.91064	2012.59778	1022.09857	-3140.56128	NaN	NaN	NaN
132	1.31	196.04906	1652.57275	1390.39038	234.53432	1657.93018	1497.92773	81.89556	1614.8938	1425.58838	119.35274	1619.9552	1539.76221	41.00802	1420.10071	1460.64771	3.19704	1126.4895	1464.40601	182.97934	1347.94397	1452.38184	223.88406	1194.23303	1449.54211	-13.43496	1226.34009	1539.78992	115.86858	1378.65247	1294.19116	55.13802	1198.05493	1215.04529	13.65864	1056.25439	1220.8667	17.49021	942.50397	1198.68164	48.96828	806.2019	1227.54883	1.04075	822.11371	1193.73401	15.57899	736.44666	1195.48962	126.58106	1377.80554	1606.4812	99.40963	1179.35498	1716.86609	126.86121	1055.28027	1730.24072	209.62019	962.35437	1752.62085	331.36331	898.97491	1715.61487	300.87872	881.27478	1762.40454	371.22025	835.711	1753.60205	182.4411	921.41638	1363.71741	167.71761	919.04956	1582.06372	-6.8131	932.48273	1400.01453	-16.5067	941.74786	1543.11047	226.13672	605.03137	1298.20251	252.20869	475.79816	1320.45081	257.48468	288.29709	1306.1217	309.44208	71.13996	1354.51819	276.2569	32.89036	1409.19934	457.81683	72.58948	1349.02209	46.04284	597.4657	1625.89832	16.85099	438.56879	1599.76343	-91.06521	296.85394	1596.54614	-182.04787	110.05933	1543.66138	-238.99202	92.56181	1492.16577	-59.84475	33.0857	1534.80579	220.20836	1692.72131	1478.61865	1973.05884	1023.33636	-3101.85889	2012.49512	1022.02924	-3140.66016	NaN	NaN	NaN
133	1.32	205.60677	1652.08386	1387.72021	243.97614	1657.47473	1495.34058	91.4241	1614.2688	1422.8219	128.77942	1619.32886	1537.04297	50.654	1419.29968	1457.89819	14.21618	1125.39197	1462.46021	193.03735	1347.44958	1450.0365	234.49869	1193.95093	1447.67639	-3.19291	1225.50781	1537.42676	126.00302	1377.73279	1291.60596	65.81713	1196.71899	1213.12354	24.82184	1054.68311	1219.16797	29.26534	940.90906	1197.401	61.5297	804.92468	1226.67285	13.54352	820.37079	1192.79834	28.43005	735.25818	1195.01233	136.21222	1377.50781	1604.00134	107.82664	1179.21582	1714.47424	134.64574	1055.06543	1728.17078	216.49841	961.38892	1751.02893	337.88745	896.83917	1714.64209	306.93356	879.38293	1761.16431	376.80243	833.13562	1752.8855	194.29675	921.05402	1362.76892	178.78574	918.50006	1581.09387	4.60051	931.62939	1398.34583	-5.23635	941.0119	1541.4447	239.19128	604.70972	1300.14343	264.4538	475.37683	1321.07751	265.00052	286.62955	1307.14917	312.02142	69.90089	1356.27539	277.90228	33.84693	1410.23535	461.33316	64.35889	1350.48218	56.88422	596.87842	1625.50586	27.28985	437.94571	1600.20471	-84.07983	298.67352	1597.09741	-179.29207	113.69662	1544.797	-236.57364	97.8176	1493.24854	-59.35008	33.09863	1535.10364	229.60709	1692.19604	1475.96423	1972.99219	1023.73254	-3101.94653	2012.44019	1021.95752	-3140.75366	NaN	NaN	NaN
134	1.33	215.3391	1652.04382	1384.95276	253.47131	1657.43469	1492.77075	100.92992	1614.04138	1419.80933	138.24368	1619.00208	1534.19788	60.31242	1418.96289	1454.92981	25.21286	1124.57495	1460.49646	203.10365	1347.18298	1447.58594	245.09576	1194.03052	1445.74963	7.10138	1224.97803	1534.72595	136.31406	1377.05188	1288.92957	76.76191	1195.36243	1210.94727	36.41907	1053.1886	1217.396	41.40858	939.2804	1195.98889	74.66023	803.70087	1225.58069	26.44196	818.63959	1191.85754	42.40999	733.57239	1193.99353	145.90794	1377.37805	1601.48352	116.2848	1179.18506	1712.09509	142.32904	1054.849	1725.95972	223.33754	960.45953	1749.52612	344.07156	894.51398	1713.70728	312.65671	877.33734	1759.99683	381.97415	830.04193	1751.87915	206.01288	920.75226	1361.90015	190.10693	918.11389	1580.03967	16.09384	930.91229	1396.50171	5.97629	940.21063	1539.77991	251.62126	604.18256	1301.99548	275.7215	474.67722	1320.59448	272.40295	285.67392	1308.62146	315.68091	70.03653	1355.76978	280.2009	35.28736	1409.65271	465.62216	58.36203	1351.87354	68.33551	596.36353	1625.11243	38.4249	437.20651	1600.4668	-76.47811	300.67487	1597.45264	-175.97881	117.92458	1546.14172	-233.57053	103.77369	1494.46692	-58.8589	33.15586	1535.43384	239.01285	1691.99524	1473.39917	1973.1438	1023.43353	-3101.82983	2012.60791	1022.09283	-3140.60132	NaN	NaN	NaN
